# xmcd CD database file
#
# Track frame offsets:
#	150
#	27290
#	54135
#	87298
#	112428
#	135103
#	154740
#	177930
#	204878
#	224153
#	246528
#	269135
#	287031
#
# Disc length: 4065 seconds
#
# Revision: 5
# Processed by: cddbd v1.5.1PL0 Copyright (c) Steve Scherf et al.
# Submitted via: CDex 1.51
#
DISCID=c50fdf0d
DTITLE=Kenny G - The Moment
DYEAR=1996
DGENRE=Blues
TTITLE0=The Moment
TTITLE1=Passages
TTITLE2=Havana
TTITLE3=Always
TTITLE4=That Somebody Was You
TTITLE5=The Champion's Theme
TTITLE6=Eastside Jam
TTITLE7=Moonlight
TTITLE8=Gettin' On The Step
TTITLE9=Everytime I Close My Eyes
TTITLE10=Northern Lights
TTITLE11=Innocence
TTITLE12=Havana (Remix)
EXTD=Kenny G, sax\nWalter Afanasieff, piano\nPaulinho De Costa, Percussion\nMichael Thompson, guitar\n\nvon Brigitte Walther erhalten YEAR: 1996
EXTT0=
EXTT1=
EXTT2=
EXTT3=
EXTT4=With Toni Braxton
EXTT5=
EXTT6=
EXTT7=
EXTT8=
EXTT9=With Babyface
EXTT10=
EXTT11=
EXTT12=
PLAYORDER=
